<?xml version="1.0" encoding="UTF-8"?>
<svg xmlns="http://www.w3.org/2000/svg" xmlns:xlink="http://www.w3.org/1999/xlink" width="177.514" height="158.664" viewBox="0 0 177.514 158.664">
<defs>
<g>
<g id="glyph-0-0">
<path d="M 2.234375 -6.015625 C 2.234375 -6.375 2.265625 -6.484375 3.046875 -6.484375 L 3.3125 -6.484375 L 3.3125 -6.78125 C 2.96875 -6.75 2.171875 -6.75 1.796875 -6.75 C 1.40625 -6.75 0.625 -6.75 0.28125 -6.78125 L 0.28125 -6.484375 L 0.53125 -6.484375 C 1.328125 -6.484375 1.34375 -6.375 1.34375 -6.015625 L 1.34375 -0.78125 C 1.34375 -0.421875 1.328125 -0.3125 0.53125 -0.3125 L 0.28125 -0.3125 L 0.28125 0 C 0.625 -0.03125 1.40625 -0.03125 1.78125 -0.03125 C 2.171875 -0.03125 2.96875 -0.03125 3.3125 0 L 3.3125 -0.3125 L 3.046875 -0.3125 C 2.265625 -0.3125 2.234375 -0.421875 2.234375 -0.78125 Z M 2.234375 -6.015625 "/>
</g>
<g id="glyph-0-1">
<path d="M 6.171875 -5.8125 C 6.3125 -6.1875 6.578125 -6.46875 7.25 -6.484375 L 7.25 -6.78125 C 6.953125 -6.765625 6.546875 -6.75 6.296875 -6.75 C 6 -6.75 5.421875 -6.78125 5.15625 -6.78125 L 5.15625 -6.484375 C 5.671875 -6.46875 5.890625 -6.21875 5.890625 -5.984375 C 5.890625 -5.90625 5.859375 -5.84375 5.828125 -5.78125 L 4.015625 -1 L 2.109375 -6.015625 C 2.0625 -6.15625 2.0625 -6.171875 2.0625 -6.1875 C 2.0625 -6.484375 2.625 -6.484375 2.875 -6.484375 L 2.875 -6.78125 C 2.515625 -6.75 1.828125 -6.75 1.453125 -6.75 C 0.96875 -6.75 0.546875 -6.78125 0.1875 -6.78125 L 0.1875 -6.484375 C 0.828125 -6.484375 1.03125 -6.484375 1.15625 -6.109375 L 3.46875 0 C 3.53125 0.1875 3.59375 0.21875 3.71875 0.21875 C 3.890625 0.21875 3.90625 0.171875 3.953125 0.03125 Z M 6.171875 -5.8125 "/>
</g>
<g id="glyph-1-0">
<path d="M 3.015625 -3.234375 L 3.96875 -3.234375 C 4.71875 -3.234375 4.796875 -3.078125 4.796875 -2.78125 C 4.796875 -2.71875 4.796875 -2.59375 4.734375 -2.296875 C 4.703125 -2.25 4.703125 -2.203125 4.703125 -2.1875 C 4.703125 -2.109375 4.765625 -2.0625 4.8125 -2.0625 C 4.921875 -2.0625 4.921875 -2.09375 4.96875 -2.28125 L 5.515625 -4.4375 C 5.546875 -4.546875 5.546875 -4.5625 5.546875 -4.59375 C 5.546875 -4.609375 5.53125 -4.703125 5.421875 -4.703125 C 5.328125 -4.703125 5.3125 -4.65625 5.28125 -4.484375 C 5.0625 -3.71875 4.84375 -3.53125 4 -3.53125 L 3.09375 -3.53125 L 3.734375 -6.0625 C 3.8125 -6.40625 3.828125 -6.453125 4.265625 -6.453125 L 5.578125 -6.453125 C 6.796875 -6.453125 7.03125 -6.125 7.03125 -5.359375 C 7.03125 -5.125 7.03125 -5.09375 7 -4.8125 C 6.96875 -4.6875 6.96875 -4.671875 6.96875 -4.640625 C 6.96875 -4.59375 7 -4.515625 7.09375 -4.515625 C 7.203125 -4.515625 7.21875 -4.578125 7.234375 -4.765625 L 7.4375 -6.484375 C 7.46875 -6.75 7.40625 -6.75 7.171875 -6.75 L 2.296875 -6.75 C 2.09375 -6.75 2 -6.75 2 -6.5625 C 2 -6.453125 2.09375 -6.453125 2.28125 -6.453125 C 2.640625 -6.453125 2.921875 -6.453125 2.921875 -6.265625 C 2.921875 -6.234375 2.921875 -6.21875 2.875 -6.03125 L 1.5625 -0.78125 C 1.453125 -0.390625 1.4375 -0.3125 0.65625 -0.3125 C 0.484375 -0.3125 0.375 -0.3125 0.375 -0.125 C 0.375 0 0.5 0 0.53125 0 C 0.8125 0 1.546875 -0.03125 1.84375 -0.03125 C 2.171875 -0.03125 2.984375 0 3.3125 0 C 3.40625 0 3.53125 0 3.53125 -0.1875 C 3.53125 -0.265625 3.46875 -0.28125 3.46875 -0.296875 C 3.4375 -0.3125 3.421875 -0.3125 3.1875 -0.3125 C 2.96875 -0.3125 2.921875 -0.3125 2.671875 -0.328125 C 2.390625 -0.359375 2.359375 -0.390625 2.359375 -0.53125 C 2.359375 -0.546875 2.359375 -0.609375 2.390625 -0.75 Z M 3.015625 -3.234375 "/>
</g>
<g id="glyph-2-0">
<path d="M 2.328125 -4.421875 C 2.328125 -4.609375 2.3125 -4.609375 2.125 -4.609375 C 1.671875 -4.171875 1.046875 -4.171875 0.765625 -4.171875 L 0.765625 -3.921875 C 0.921875 -3.921875 1.390625 -3.921875 1.765625 -4.109375 L 1.765625 -0.5625 C 1.765625 -0.34375 1.765625 -0.25 1.078125 -0.25 L 0.8125 -0.25 L 0.8125 0 C 0.9375 0 1.78125 -0.03125 2.046875 -0.03125 C 2.265625 -0.03125 3.140625 0 3.28125 0 L 3.28125 -0.25 L 3.03125 -0.25 C 2.328125 -0.25 2.328125 -0.34375 2.328125 -0.5625 Z M 2.328125 -4.421875 "/>
</g>
<g id="glyph-2-1">
<path d="M 3.515625 -1.265625 L 3.28125 -1.265625 C 3.25 -1.109375 3.1875 -0.703125 3.09375 -0.625 C 3.03125 -0.59375 2.5 -0.59375 2.40625 -0.59375 L 1.125 -0.59375 C 1.859375 -1.234375 2.09375 -1.4375 2.515625 -1.765625 C 3.03125 -2.171875 3.515625 -2.59375 3.515625 -3.265625 C 3.515625 -4.109375 2.78125 -4.609375 1.890625 -4.609375 C 1.015625 -4.609375 0.4375 -4.015625 0.4375 -3.375 C 0.4375 -3.015625 0.734375 -2.984375 0.8125 -2.984375 C 0.96875 -2.984375 1.171875 -3.09375 1.171875 -3.34375 C 1.171875 -3.484375 1.125 -3.71875 0.765625 -3.71875 C 0.984375 -4.21875 1.453125 -4.359375 1.78125 -4.359375 C 2.46875 -4.359375 2.84375 -3.828125 2.84375 -3.265625 C 2.84375 -2.65625 2.40625 -2.171875 2.1875 -1.921875 L 0.5 -0.265625 C 0.4375 -0.203125 0.4375 -0.1875 0.4375 0 L 3.296875 0 Z M 3.515625 -1.265625 "/>
</g>
<g id="glyph-2-2">
<path d="M 1.890625 -2.328125 C 2.4375 -2.328125 2.828125 -1.953125 2.828125 -1.203125 C 2.828125 -0.34375 2.328125 -0.078125 1.921875 -0.078125 C 1.640625 -0.078125 1.03125 -0.15625 0.75 -0.5625 C 1.078125 -0.578125 1.140625 -0.8125 1.140625 -0.953125 C 1.140625 -1.1875 0.984375 -1.34375 0.765625 -1.34375 C 0.5625 -1.34375 0.375 -1.21875 0.375 -0.9375 C 0.375 -0.28125 1.09375 0.140625 1.9375 0.140625 C 2.90625 0.140625 3.578125 -0.5 3.578125 -1.203125 C 3.578125 -1.75 3.125 -2.28125 2.359375 -2.453125 C 3.09375 -2.71875 3.359375 -3.234375 3.359375 -3.65625 C 3.359375 -4.203125 2.71875 -4.609375 1.953125 -4.609375 C 1.1875 -4.609375 0.59375 -4.234375 0.59375 -3.6875 C 0.59375 -3.453125 0.75 -3.3125 0.953125 -3.3125 C 1.171875 -3.3125 1.3125 -3.484375 1.3125 -3.671875 C 1.3125 -3.875 1.171875 -4.015625 0.953125 -4.03125 C 1.203125 -4.34375 1.671875 -4.421875 1.9375 -4.421875 C 2.25 -4.421875 2.6875 -4.265625 2.6875 -3.65625 C 2.6875 -3.359375 2.59375 -3.046875 2.40625 -2.828125 C 2.171875 -2.5625 1.984375 -2.546875 1.640625 -2.53125 C 1.453125 -2.515625 1.453125 -2.515625 1.40625 -2.515625 C 1.390625 -2.515625 1.34375 -2.5 1.34375 -2.421875 C 1.34375 -2.328125 1.40625 -2.328125 1.515625 -2.328125 Z M 1.890625 -2.328125 "/>
</g>
<g id="glyph-2-3">
<path d="M 3.671875 -1.140625 L 3.671875 -1.390625 L 2.90625 -1.390625 L 2.90625 -4.484375 C 2.90625 -4.640625 2.90625 -4.6875 2.75 -4.6875 C 2.671875 -4.6875 2.640625 -4.6875 2.578125 -4.59375 L 0.265625 -1.390625 L 0.265625 -1.140625 L 2.3125 -1.140625 L 2.3125 -0.5625 C 2.3125 -0.328125 2.3125 -0.25 1.75 -0.25 L 1.5625 -0.25 L 1.5625 0 C 1.90625 -0.015625 2.359375 -0.03125 2.609375 -0.03125 C 2.859375 -0.03125 3.3125 -0.015625 3.65625 0 L 3.65625 -0.25 L 3.46875 -0.25 C 2.90625 -0.25 2.90625 -0.328125 2.90625 -0.5625 L 2.90625 -1.140625 Z M 2.359375 -3.9375 L 2.359375 -1.390625 L 0.53125 -1.390625 Z M 2.359375 -3.9375 "/>
</g>
<g id="glyph-3-0">
<path d="M 0.359375 -6.796875 L 0.359375 -6.484375 C 0.484375 -6.484375 0.609375 -6.5 0.734375 -6.5 C 1.09375 -6.5 1.375 -6.453125 1.375 -6.046875 L 1.375 -0.75 C 1.375 -0.375 1.046875 -0.3125 0.71875 -0.3125 C 0.59375 -0.3125 0.46875 -0.3125 0.359375 -0.3125 L 0.359375 -0.015625 L 3.484375 -0.015625 C 3.703125 -0.015625 3.890625 0 4.109375 0 C 5.171875 0 6.484375 -0.5 6.484375 -1.890625 C 6.484375 -2.84375 5.359375 -3.546875 4.546875 -3.546875 L 4.546875 -3.5625 C 5.296875 -3.640625 6.203125 -4.265625 6.203125 -5.125 L 6.203125 -5.1875 C 6.125 -6.328125 4.84375 -6.8125 3.84375 -6.8125 C 3.640625 -6.8125 3.453125 -6.796875 3.265625 -6.796875 Z M 2.203125 -3.421875 L 3.984375 -3.421875 C 4.953125 -3.421875 5.46875 -2.6875 5.46875 -1.875 C 5.46875 -0.984375 4.84375 -0.3125 3.828125 -0.3125 C 3.671875 -0.3125 3.515625 -0.3125 3.34375 -0.3125 L 2.578125 -0.3125 C 2.375 -0.3125 2.203125 -0.375 2.203125 -0.640625 Z M 2.203125 -3.640625 L 2.203125 -6.125 C 2.203125 -6.421875 2.34375 -6.46875 2.5625 -6.484375 L 3.828125 -6.484375 C 4.40625 -6.484375 4.84375 -6.28125 5.125 -5.6875 C 5.1875 -5.515625 5.234375 -5.3125 5.234375 -5.109375 C 5.234375 -4.234375 4.453125 -3.640625 3.609375 -3.640625 C 3.5 -3.640625 3.390625 -3.640625 3.28125 -3.640625 Z M 2.203125 -3.640625 "/>
</g>
<g id="glyph-3-1">
<path d="M 0.890625 -6 L 0.890625 -5.6875 C 1.328125 -5.6875 1.796875 -5.734375 2.1875 -5.9375 L 2.1875 -0.75 C 2.1875 -0.375 1.8125 -0.3125 1.421875 -0.3125 C 1.25 -0.3125 1.078125 -0.3125 0.9375 -0.3125 L 0.9375 -0.015625 L 4.171875 -0.015625 L 4.171875 -0.3125 C 4 -0.3125 3.828125 -0.3125 3.671875 -0.3125 C 3.28125 -0.3125 2.9375 -0.375 2.9375 -0.75 L 2.9375 -6.46875 C 2.9375 -6.5625 2.90625 -6.625 2.796875 -6.625 C 2.65625 -6.625 2.484375 -6.4375 2.375 -6.359375 C 1.9375 -6.078125 1.40625 -6 0.890625 -6 Z M 0.890625 -6 "/>
</g>
<g id="glyph-3-2">
<path d="M 0.890625 -5.3125 C 1.125 -5.8125 1.484375 -6.3125 2.203125 -6.3125 C 3.140625 -6.3125 3.5625 -5.46875 3.5625 -4.6875 C 3.5625 -3.78125 2.9375 -3.015625 2.375 -2.359375 C 1.8125 -1.703125 1.203125 -1.0625 0.625 -0.40625 C 0.53125 -0.3125 0.5 -0.265625 0.5 -0.125 L 0.5 -0.015625 L 4.1875 -0.015625 L 4.46875 -1.75 L 4.21875 -1.75 C 4.140625 -1.296875 4.1875 -0.796875 3.671875 -0.796875 L 3.28125 -0.796875 C 2.984375 -0.78125 2.703125 -0.78125 2.421875 -0.78125 C 2.03125 -0.78125 1.65625 -0.78125 1.265625 -0.78125 L 1.953125 -1.4375 C 2.234375 -1.703125 2.5 -1.984375 2.796875 -2.21875 C 3.53125 -2.875 4.46875 -3.59375 4.46875 -4.703125 C 4.46875 -5.828125 3.515625 -6.640625 2.390625 -6.640625 C 1.4375 -6.640625 0.5 -5.90625 0.5 -4.84375 C 0.5 -4.59375 0.59375 -4.28125 1.015625 -4.28125 C 1.3125 -4.28125 1.546875 -4.484375 1.546875 -4.796875 C 1.546875 -5.0625 1.34375 -5.3125 1.03125 -5.3125 C 0.984375 -5.3125 0.9375 -5.3125 0.890625 -5.3125 Z M 0.890625 -5.3125 "/>
</g>
</g>
<clipPath id="clip-0">
<path clip-rule="nonzero" d="M 40.175781 139.402344 L 42.722656 139.402344 L 42.722656 142.074219 L 40.175781 142.074219 Z M 40.175781 139.402344 "/>
</clipPath>
<clipPath id="clip-1">
<path clip-rule="nonzero" d="M 40.734375 139.402344 L 45.703125 139.402344 L 45.703125 142.074219 L 40.734375 142.074219 Z M 40.734375 139.402344 "/>
</clipPath>
<clipPath id="clip-2">
<path clip-rule="nonzero" d="M 43.714844 139.402344 L 48.683594 139.402344 L 48.683594 142.074219 L 43.714844 142.074219 Z M 43.714844 139.402344 "/>
</clipPath>
<clipPath id="clip-3">
<path clip-rule="nonzero" d="M 46.695312 139.402344 L 51.664062 139.402344 L 51.664062 142.074219 L 46.695312 142.074219 Z M 46.695312 139.402344 "/>
</clipPath>
<clipPath id="clip-4">
<path clip-rule="nonzero" d="M 49.679688 139.402344 L 52.050781 139.402344 L 52.050781 142.074219 L 49.679688 142.074219 Z M 49.679688 139.402344 "/>
</clipPath>
<clipPath id="clip-5">
<path clip-rule="nonzero" d="M 40.175781 137.832031 L 42.722656 137.832031 L 42.722656 141.390625 L 40.175781 141.390625 Z M 40.175781 137.832031 "/>
</clipPath>
<clipPath id="clip-6">
<path clip-rule="nonzero" d="M 40.734375 137.832031 L 45.703125 137.832031 L 45.703125 141.390625 L 40.734375 141.390625 Z M 40.734375 137.832031 "/>
</clipPath>
<clipPath id="clip-7">
<path clip-rule="nonzero" d="M 43.714844 137.832031 L 48.683594 137.832031 L 48.683594 141.390625 L 43.714844 141.390625 Z M 43.714844 137.832031 "/>
</clipPath>
<clipPath id="clip-8">
<path clip-rule="nonzero" d="M 46.695312 137.832031 L 51.664062 137.832031 L 51.664062 141.390625 L 46.695312 141.390625 Z M 46.695312 137.832031 "/>
</clipPath>
<clipPath id="clip-9">
<path clip-rule="nonzero" d="M 49.679688 137.832031 L 52.050781 137.832031 L 52.050781 141.390625 L 49.679688 141.390625 Z M 49.679688 137.832031 "/>
</clipPath>
<clipPath id="clip-10">
<path clip-rule="nonzero" d="M 40.175781 137.832031 L 42.722656 137.832031 L 42.722656 138.410156 L 40.175781 138.410156 Z M 40.175781 137.832031 "/>
</clipPath>
<clipPath id="clip-11">
<path clip-rule="nonzero" d="M 40.734375 137.832031 L 45.703125 137.832031 L 45.703125 138.410156 L 40.734375 138.410156 Z M 40.734375 137.832031 "/>
</clipPath>
<clipPath id="clip-12">
<path clip-rule="nonzero" d="M 43.714844 137.832031 L 48.683594 137.832031 L 48.683594 138.410156 L 43.714844 138.410156 Z M 43.714844 137.832031 "/>
</clipPath>
<clipPath id="clip-13">
<path clip-rule="nonzero" d="M 46.695312 137.832031 L 51.664062 137.832031 L 51.664062 138.410156 L 46.695312 138.410156 Z M 46.695312 137.832031 "/>
</clipPath>
<clipPath id="clip-14">
<path clip-rule="nonzero" d="M 49.679688 137.832031 L 52.050781 137.832031 L 52.050781 138.410156 L 49.679688 138.410156 Z M 49.679688 137.832031 "/>
</clipPath>
<clipPath id="clip-15">
<path clip-rule="nonzero" d="M 124.980469 139.402344 L 126.183594 139.402344 L 126.183594 142.074219 L 124.980469 142.074219 Z M 124.980469 139.402344 "/>
</clipPath>
<clipPath id="clip-16">
<path clip-rule="nonzero" d="M 124.980469 139.402344 L 129.164062 139.402344 L 129.164062 142.074219 L 124.980469 142.074219 Z M 124.980469 139.402344 "/>
</clipPath>
<clipPath id="clip-17">
<path clip-rule="nonzero" d="M 127.175781 139.402344 L 132.144531 139.402344 L 132.144531 142.074219 L 127.175781 142.074219 Z M 127.175781 139.402344 "/>
</clipPath>
<clipPath id="clip-18">
<path clip-rule="nonzero" d="M 130.15625 139.402344 L 135.125 139.402344 L 135.125 142.074219 L 130.15625 142.074219 Z M 130.15625 139.402344 "/>
</clipPath>
<clipPath id="clip-19">
<path clip-rule="nonzero" d="M 133.136719 139.402344 L 136.855469 139.402344 L 136.855469 142.074219 L 133.136719 142.074219 Z M 133.136719 139.402344 "/>
</clipPath>
<clipPath id="clip-20">
<path clip-rule="nonzero" d="M 136.117188 139.402344 L 136.855469 139.402344 L 136.855469 142.074219 L 136.117188 142.074219 Z M 136.117188 139.402344 "/>
</clipPath>
<clipPath id="clip-21">
<path clip-rule="nonzero" d="M 124.980469 137.832031 L 126.183594 137.832031 L 126.183594 141.390625 L 124.980469 141.390625 Z M 124.980469 137.832031 "/>
</clipPath>
<clipPath id="clip-22">
<path clip-rule="nonzero" d="M 124.980469 137.832031 L 129.164062 137.832031 L 129.164062 141.390625 L 124.980469 141.390625 Z M 124.980469 137.832031 "/>
</clipPath>
<clipPath id="clip-23">
<path clip-rule="nonzero" d="M 127.175781 137.832031 L 132.144531 137.832031 L 132.144531 141.390625 L 127.175781 141.390625 Z M 127.175781 137.832031 "/>
</clipPath>
<clipPath id="clip-24">
<path clip-rule="nonzero" d="M 130.15625 137.832031 L 135.125 137.832031 L 135.125 141.390625 L 130.15625 141.390625 Z M 130.15625 137.832031 "/>
</clipPath>
<clipPath id="clip-25">
<path clip-rule="nonzero" d="M 133.136719 137.832031 L 136.855469 137.832031 L 136.855469 141.390625 L 133.136719 141.390625 Z M 133.136719 137.832031 "/>
</clipPath>
<clipPath id="clip-26">
<path clip-rule="nonzero" d="M 136.117188 137.832031 L 136.855469 137.832031 L 136.855469 141.390625 L 136.117188 141.390625 Z M 136.117188 137.832031 "/>
</clipPath>
<clipPath id="clip-27">
<path clip-rule="nonzero" d="M 124.980469 137.832031 L 126.183594 137.832031 L 126.183594 138.410156 L 124.980469 138.410156 Z M 124.980469 137.832031 "/>
</clipPath>
<clipPath id="clip-28">
<path clip-rule="nonzero" d="M 124.980469 137.832031 L 129.164062 137.832031 L 129.164062 138.410156 L 124.980469 138.410156 Z M 124.980469 137.832031 "/>
</clipPath>
<clipPath id="clip-29">
<path clip-rule="nonzero" d="M 127.175781 137.832031 L 132.144531 137.832031 L 132.144531 138.410156 L 127.175781 138.410156 Z M 127.175781 137.832031 "/>
</clipPath>
<clipPath id="clip-30">
<path clip-rule="nonzero" d="M 130.15625 137.832031 L 135.125 137.832031 L 135.125 138.410156 L 130.15625 138.410156 Z M 130.15625 137.832031 "/>
</clipPath>
<clipPath id="clip-31">
<path clip-rule="nonzero" d="M 133.136719 137.832031 L 136.855469 137.832031 L 136.855469 138.410156 L 133.136719 138.410156 Z M 133.136719 137.832031 "/>
</clipPath>
<clipPath id="clip-32">
<path clip-rule="nonzero" d="M 136.117188 137.832031 L 136.855469 137.832031 L 136.855469 138.410156 L 136.117188 138.410156 Z M 136.117188 137.832031 "/>
</clipPath>
<clipPath id="clip-33">
<path clip-rule="nonzero" d="M 45 0.0507812 L 47 0.0507812 L 47 41 L 45 41 Z M 45 0.0507812 "/>
</clipPath>
<clipPath id="clip-34">
<path clip-rule="nonzero" d="M 43 0.0507812 L 49 0.0507812 L 49 4 L 43 4 Z M 43 0.0507812 "/>
</clipPath>
<clipPath id="clip-35">
<path clip-rule="nonzero" d="M 130 0.0507812 L 132 0.0507812 L 132 41 L 130 41 Z M 130 0.0507812 "/>
</clipPath>
<clipPath id="clip-36">
<path clip-rule="nonzero" d="M 128 0.0507812 L 134 0.0507812 L 134 4 L 128 4 Z M 128 0.0507812 "/>
</clipPath>
</defs>
<path fill-rule="nonzero" fill="rgb(50%, 50%, 50%)" fill-opacity="1" d="M 44.496094 130.425781 L 40.175781 137.832031 L 52.050781 137.832031 L 47.726562 130.425781 "/>
<g clip-path="url(#clip-0)">
<path fill="none" stroke-width="0.3985" stroke-linecap="butt" stroke-linejoin="miter" stroke="rgb(0%, 0%, 0%)" stroke-opacity="1" stroke-miterlimit="10" d="M 0.00130022 0.00151229 L 3.087853 3.088065 " transform="matrix(0.99727, 0, 0, -0.99727, 38.748703, 143.376508)"/>
</g>
<g clip-path="url(#clip-1)">
<path fill="none" stroke-width="0.3985" stroke-linecap="butt" stroke-linejoin="miter" stroke="rgb(0%, 0%, 0%)" stroke-opacity="1" stroke-miterlimit="10" d="M 0.00109894 0.00151229 L 3.087651 3.088065 " transform="matrix(0.99727, 0, 0, -0.99727, 41.729373, 143.376508)"/>
</g>
<g clip-path="url(#clip-2)">
<path fill="none" stroke-width="0.3985" stroke-linecap="butt" stroke-linejoin="miter" stroke="rgb(0%, 0%, 0%)" stroke-opacity="1" stroke-miterlimit="10" d="M 0.000897651 0.00151229 L 3.08745 3.088065 " transform="matrix(0.99727, 0, 0, -0.99727, 44.710042, 143.376508)"/>
</g>
<g clip-path="url(#clip-3)">
<path fill="none" stroke-width="0.3985" stroke-linecap="butt" stroke-linejoin="miter" stroke="rgb(0%, 0%, 0%)" stroke-opacity="1" stroke-miterlimit="10" d="M 0.000696365 0.00151229 L 3.087249 3.088065 " transform="matrix(0.99727, 0, 0, -0.99727, 47.690712, 143.376508)"/>
</g>
<g clip-path="url(#clip-4)">
<path fill="none" stroke-width="0.3985" stroke-linecap="butt" stroke-linejoin="miter" stroke="rgb(0%, 0%, 0%)" stroke-opacity="1" stroke-miterlimit="10" d="M 0.000495079 0.00151229 L 3.087047 3.088065 " transform="matrix(0.99727, 0, 0, -0.99727, 50.671381, 143.376508)"/>
</g>
<g clip-path="url(#clip-5)">
<path fill="none" stroke-width="0.3985" stroke-linecap="butt" stroke-linejoin="miter" stroke="rgb(0%, 0%, 0%)" stroke-opacity="1" stroke-miterlimit="10" d="M 0.00130022 0.00131101 L 3.087853 3.087863 " transform="matrix(0.99727, 0, 0, -0.99727, 38.748703, 140.395839)"/>
</g>
<g clip-path="url(#clip-6)">
<path fill="none" stroke-width="0.3985" stroke-linecap="butt" stroke-linejoin="miter" stroke="rgb(0%, 0%, 0%)" stroke-opacity="1" stroke-miterlimit="10" d="M 0.00109894 0.00131101 L 3.087651 3.087863 " transform="matrix(0.99727, 0, 0, -0.99727, 41.729373, 140.395839)"/>
</g>
<g clip-path="url(#clip-7)">
<path fill="none" stroke-width="0.3985" stroke-linecap="butt" stroke-linejoin="miter" stroke="rgb(0%, 0%, 0%)" stroke-opacity="1" stroke-miterlimit="10" d="M 0.000897651 0.00131101 L 3.08745 3.087863 " transform="matrix(0.99727, 0, 0, -0.99727, 44.710042, 140.395839)"/>
</g>
<g clip-path="url(#clip-8)">
<path fill="none" stroke-width="0.3985" stroke-linecap="butt" stroke-linejoin="miter" stroke="rgb(0%, 0%, 0%)" stroke-opacity="1" stroke-miterlimit="10" d="M 0.000696365 0.00131101 L 3.087249 3.087863 " transform="matrix(0.99727, 0, 0, -0.99727, 47.690712, 140.395839)"/>
</g>
<g clip-path="url(#clip-9)">
<path fill="none" stroke-width="0.3985" stroke-linecap="butt" stroke-linejoin="miter" stroke="rgb(0%, 0%, 0%)" stroke-opacity="1" stroke-miterlimit="10" d="M 0.000495079 0.00131101 L 3.087047 3.087863 " transform="matrix(0.99727, 0, 0, -0.99727, 50.671381, 140.395839)"/>
</g>
<g clip-path="url(#clip-10)">
<path fill="none" stroke-width="0.3985" stroke-linecap="butt" stroke-linejoin="miter" stroke="rgb(0%, 0%, 0%)" stroke-opacity="1" stroke-miterlimit="10" d="M 0.00130022 0.00110972 L 3.087853 3.087662 " transform="matrix(0.99727, 0, 0, -0.99727, 38.748703, 137.415169)"/>
</g>
<g clip-path="url(#clip-11)">
<path fill="none" stroke-width="0.3985" stroke-linecap="butt" stroke-linejoin="miter" stroke="rgb(0%, 0%, 0%)" stroke-opacity="1" stroke-miterlimit="10" d="M 0.00109894 0.00110972 L 3.087651 3.087662 " transform="matrix(0.99727, 0, 0, -0.99727, 41.729373, 137.415169)"/>
</g>
<g clip-path="url(#clip-12)">
<path fill="none" stroke-width="0.3985" stroke-linecap="butt" stroke-linejoin="miter" stroke="rgb(0%, 0%, 0%)" stroke-opacity="1" stroke-miterlimit="10" d="M 0.000897651 0.00110972 L 3.08745 3.087662 " transform="matrix(0.99727, 0, 0, -0.99727, 44.710042, 137.415169)"/>
</g>
<g clip-path="url(#clip-13)">
<path fill="none" stroke-width="0.3985" stroke-linecap="butt" stroke-linejoin="miter" stroke="rgb(0%, 0%, 0%)" stroke-opacity="1" stroke-miterlimit="10" d="M 0.000696365 0.00110972 L 3.087249 3.087662 " transform="matrix(0.99727, 0, 0, -0.99727, 47.690712, 137.415169)"/>
</g>
<g clip-path="url(#clip-14)">
<path fill="none" stroke-width="0.3985" stroke-linecap="butt" stroke-linejoin="miter" stroke="rgb(0%, 0%, 0%)" stroke-opacity="1" stroke-miterlimit="10" d="M 0.000495079 0.00110972 L 3.087047 3.087662 " transform="matrix(0.99727, 0, 0, -0.99727, 50.671381, 137.415169)"/>
</g>
<path fill-rule="nonzero" fill="rgb(50%, 50%, 50%)" fill-opacity="1" d="M 129.300781 130.425781 L 124.980469 137.832031 L 136.855469 137.832031 L 132.535156 130.425781 "/>
<g clip-path="url(#clip-15)">
<path fill="none" stroke-width="0.3985" stroke-linecap="butt" stroke-linejoin="miter" stroke="rgb(0%, 0%, 0%)" stroke-opacity="1" stroke-miterlimit="10" d="M -0.000418845 0.00151229 L 3.09005 3.088065 " transform="matrix(0.99727, 0, 0, -0.99727, 122.207449, 143.376508)"/>
</g>
<g clip-path="url(#clip-16)">
<path fill="none" stroke-width="0.3985" stroke-linecap="butt" stroke-linejoin="miter" stroke="rgb(0%, 0%, 0%)" stroke-opacity="1" stroke-miterlimit="10" d="M -0.000620132 0.00151229 L 3.089849 3.088065 " transform="matrix(0.99727, 0, 0, -0.99727, 125.188118, 143.376508)"/>
</g>
<g clip-path="url(#clip-17)">
<path fill="none" stroke-width="0.3985" stroke-linecap="butt" stroke-linejoin="miter" stroke="rgb(0%, 0%, 0%)" stroke-opacity="1" stroke-miterlimit="10" d="M -0.000821418 0.00151229 L 3.089648 3.088065 " transform="matrix(0.99727, 0, 0, -0.99727, 128.168788, 143.376508)"/>
</g>
<g clip-path="url(#clip-18)">
<path fill="none" stroke-width="0.3985" stroke-linecap="butt" stroke-linejoin="miter" stroke="rgb(0%, 0%, 0%)" stroke-opacity="1" stroke-miterlimit="10" d="M -0.0010227 0.00151229 L 3.089447 3.088065 " transform="matrix(0.99727, 0, 0, -0.99727, 131.149457, 143.376508)"/>
</g>
<g clip-path="url(#clip-19)">
<path fill="none" stroke-width="0.3985" stroke-linecap="butt" stroke-linejoin="miter" stroke="rgb(0%, 0%, 0%)" stroke-opacity="1" stroke-miterlimit="10" d="M -0.00122399 0.00151229 L 3.089245 3.088065 " transform="matrix(0.99727, 0, 0, -0.99727, 134.130127, 143.376508)"/>
</g>
<g clip-path="url(#clip-20)">
<path fill="none" stroke-width="0.3985" stroke-linecap="butt" stroke-linejoin="miter" stroke="rgb(0%, 0%, 0%)" stroke-opacity="1" stroke-miterlimit="10" d="M -0.00142528 0.00151229 L 3.089044 3.088065 " transform="matrix(0.99727, 0, 0, -0.99727, 137.110796, 143.376508)"/>
</g>
<g clip-path="url(#clip-21)">
<path fill="none" stroke-width="0.3985" stroke-linecap="butt" stroke-linejoin="miter" stroke="rgb(0%, 0%, 0%)" stroke-opacity="1" stroke-miterlimit="10" d="M -0.000418845 0.00131101 L 3.09005 3.087863 " transform="matrix(0.99727, 0, 0, -0.99727, 122.207449, 140.395839)"/>
</g>
<g clip-path="url(#clip-22)">
<path fill="none" stroke-width="0.3985" stroke-linecap="butt" stroke-linejoin="miter" stroke="rgb(0%, 0%, 0%)" stroke-opacity="1" stroke-miterlimit="10" d="M -0.000620132 0.00131101 L 3.089849 3.087863 " transform="matrix(0.99727, 0, 0, -0.99727, 125.188118, 140.395839)"/>
</g>
<g clip-path="url(#clip-23)">
<path fill="none" stroke-width="0.3985" stroke-linecap="butt" stroke-linejoin="miter" stroke="rgb(0%, 0%, 0%)" stroke-opacity="1" stroke-miterlimit="10" d="M -0.000821418 0.00131101 L 3.089648 3.087863 " transform="matrix(0.99727, 0, 0, -0.99727, 128.168788, 140.395839)"/>
</g>
<g clip-path="url(#clip-24)">
<path fill="none" stroke-width="0.3985" stroke-linecap="butt" stroke-linejoin="miter" stroke="rgb(0%, 0%, 0%)" stroke-opacity="1" stroke-miterlimit="10" d="M -0.0010227 0.00131101 L 3.089447 3.087863 " transform="matrix(0.99727, 0, 0, -0.99727, 131.149457, 140.395839)"/>
</g>
<g clip-path="url(#clip-25)">
<path fill="none" stroke-width="0.3985" stroke-linecap="butt" stroke-linejoin="miter" stroke="rgb(0%, 0%, 0%)" stroke-opacity="1" stroke-miterlimit="10" d="M -0.00122399 0.00131101 L 3.089245 3.087863 " transform="matrix(0.99727, 0, 0, -0.99727, 134.130127, 140.395839)"/>
</g>
<g clip-path="url(#clip-26)">
<path fill="none" stroke-width="0.3985" stroke-linecap="butt" stroke-linejoin="miter" stroke="rgb(0%, 0%, 0%)" stroke-opacity="1" stroke-miterlimit="10" d="M -0.00142528 0.00131101 L 3.089044 3.087863 " transform="matrix(0.99727, 0, 0, -0.99727, 137.110796, 140.395839)"/>
</g>
<g clip-path="url(#clip-27)">
<path fill="none" stroke-width="0.3985" stroke-linecap="butt" stroke-linejoin="miter" stroke="rgb(0%, 0%, 0%)" stroke-opacity="1" stroke-miterlimit="10" d="M -0.000418845 0.00110972 L 3.09005 3.087662 " transform="matrix(0.99727, 0, 0, -0.99727, 122.207449, 137.415169)"/>
</g>
<g clip-path="url(#clip-28)">
<path fill="none" stroke-width="0.3985" stroke-linecap="butt" stroke-linejoin="miter" stroke="rgb(0%, 0%, 0%)" stroke-opacity="1" stroke-miterlimit="10" d="M -0.000620132 0.00110972 L 3.089849 3.087662 " transform="matrix(0.99727, 0, 0, -0.99727, 125.188118, 137.415169)"/>
</g>
<g clip-path="url(#clip-29)">
<path fill="none" stroke-width="0.3985" stroke-linecap="butt" stroke-linejoin="miter" stroke="rgb(0%, 0%, 0%)" stroke-opacity="1" stroke-miterlimit="10" d="M -0.000821418 0.00110972 L 3.089648 3.087662 " transform="matrix(0.99727, 0, 0, -0.99727, 128.168788, 137.415169)"/>
</g>
<g clip-path="url(#clip-30)">
<path fill="none" stroke-width="0.3985" stroke-linecap="butt" stroke-linejoin="miter" stroke="rgb(0%, 0%, 0%)" stroke-opacity="1" stroke-miterlimit="10" d="M -0.0010227 0.00110972 L 3.089447 3.087662 " transform="matrix(0.99727, 0, 0, -0.99727, 131.149457, 137.415169)"/>
</g>
<g clip-path="url(#clip-31)">
<path fill="none" stroke-width="0.3985" stroke-linecap="butt" stroke-linejoin="miter" stroke="rgb(0%, 0%, 0%)" stroke-opacity="1" stroke-miterlimit="10" d="M -0.00122399 0.00110972 L 3.089245 3.087662 " transform="matrix(0.99727, 0, 0, -0.99727, 134.130127, 137.415169)"/>
</g>
<g clip-path="url(#clip-32)">
<path fill="none" stroke-width="0.3985" stroke-linecap="butt" stroke-linejoin="miter" stroke="rgb(0%, 0%, 0%)" stroke-opacity="1" stroke-miterlimit="10" d="M -0.00142528 0.00110972 L 3.089044 3.087662 " transform="matrix(0.99727, 0, 0, -0.99727, 137.110796, 137.415169)"/>
</g>
<path fill="none" stroke-width="2.26773" stroke-linecap="butt" stroke-linejoin="miter" stroke="rgb(50%, 50%, 50%)" stroke-opacity="1" stroke-miterlimit="10" d="M 0.00153076 -0.000552723 L 0.00153076 85.040231 L 85.042315 85.040231 L 85.042315 -0.000552723 " transform="matrix(0.99727, 0, 0, -0.99727, 46.111755, 127.655699)"/>
<path fill-rule="nonzero" fill="rgb(100%, 100%, 100%)" fill-opacity="1" stroke-width="0.79701" stroke-linecap="butt" stroke-linejoin="miter" stroke="rgb(0%, 0%, 0%)" stroke-opacity="1" stroke-miterlimit="10" d="M 2.817814 -0.000552723 C 2.817814 1.554474 1.556558 2.819647 0.00153076 2.819647 C -1.557413 2.819647 -2.818669 1.554474 -2.818669 -0.000552723 C -2.818669 -1.55558 -1.557413 -2.816836 0.00153076 -2.816836 C 1.556558 -2.816836 2.817814 -1.55558 2.817814 -0.000552723 Z M 2.817814 -0.000552723 " transform="matrix(0.99727, 0, 0, -0.99727, 46.111755, 127.655699)"/>
<g fill="rgb(0%, 0%, 0%)" fill-opacity="1">
<use xlink:href="#glyph-0-0" x="38.082737" y="88.646499"/>
</g>
<path fill-rule="nonzero" fill="rgb(100%, 100%, 100%)" fill-opacity="1" stroke-width="0.79701" stroke-linecap="butt" stroke-linejoin="miter" stroke="rgb(0%, 0%, 0%)" stroke-opacity="1" stroke-miterlimit="10" d="M 2.817814 85.040231 C 2.817814 86.595258 1.556558 87.860431 0.00153076 87.860431 C -1.557413 87.860431 -2.818669 86.595258 -2.818669 85.040231 C -2.818669 83.485204 -1.557413 82.223948 0.00153076 82.223948 C 1.556558 82.223948 2.817814 83.485204 2.817814 85.040231 Z M 2.817814 85.040231 " transform="matrix(0.99727, 0, 0, -0.99727, 46.111755, 127.655699)"/>
<g fill="rgb(0%, 0%, 0%)" fill-opacity="1">
<use xlink:href="#glyph-0-0" x="84.789861" y="38.407045"/>
</g>
<g fill="rgb(0%, 0%, 0%)" fill-opacity="1">
<use xlink:href="#glyph-0-0" x="88.655725" y="38.407045"/>
</g>
<path fill-rule="nonzero" fill="rgb(100%, 100%, 100%)" fill-opacity="1" stroke-width="0.79701" stroke-linecap="butt" stroke-linejoin="miter" stroke="rgb(0%, 0%, 0%)" stroke-opacity="1" stroke-miterlimit="10" d="M 87.858598 85.040231 C 87.858598 86.595258 86.597342 87.860431 85.042315 87.860431 C 83.483371 87.860431 82.222114 86.595258 82.222114 85.040231 C 82.222114 83.485204 83.483371 82.223948 85.042315 82.223948 C 86.597342 82.223948 87.858598 83.485204 87.858598 85.040231 Z M 87.858598 85.040231 " transform="matrix(0.99727, 0, 0, -0.99727, 46.111755, 127.655699)"/>
<g fill="rgb(0%, 0%, 0%)" fill-opacity="1">
<use xlink:href="#glyph-0-0" x="135.360409" y="88.646499"/>
</g>
<g fill="rgb(0%, 0%, 0%)" fill-opacity="1">
<use xlink:href="#glyph-0-0" x="139.226272" y="88.646499"/>
</g>
<g fill="rgb(0%, 0%, 0%)" fill-opacity="1">
<use xlink:href="#glyph-0-0" x="143.092136" y="88.646499"/>
</g>
<path fill-rule="nonzero" fill="rgb(100%, 100%, 100%)" fill-opacity="1" stroke-width="0.79701" stroke-linecap="butt" stroke-linejoin="miter" stroke="rgb(0%, 0%, 0%)" stroke-opacity="1" stroke-miterlimit="10" d="M 87.858598 -0.000552723 C 87.858598 1.554474 86.597342 2.819647 85.042315 2.819647 C 83.483371 2.819647 82.222114 1.554474 82.222114 -0.000552723 C 82.222114 -1.55558 83.483371 -2.816836 85.042315 -2.816836 C 86.597342 -2.816836 87.858598 -1.55558 87.858598 -0.000552723 Z M 87.858598 -0.000552723 " transform="matrix(0.99727, 0, 0, -0.99727, 46.111755, 127.655699)"/>
<path fill="none" stroke-width="2.26773" stroke-linecap="butt" stroke-linejoin="miter" stroke="rgb(50%, 50%, 50%)" stroke-opacity="1" stroke-miterlimit="10" d="M 82.76657 82.764486 L 2.273359 2.275192 " transform="matrix(0.99727, 0, 0, -0.99727, 46.111755, 127.655699)"/>
<g fill="rgb(0%, 0%, 0%)" fill-opacity="1">
<use xlink:href="#glyph-0-0" x="62.544764" y="122.261467"/>
<use xlink:href="#glyph-0-1" x="66.132437" y="122.261467"/>
</g>
<path fill="none" stroke-width="2.26773" stroke-linecap="butt" stroke-linejoin="miter" stroke="rgb(50%, 50%, 50%)" stroke-opacity="1" stroke-miterlimit="10" d="M 2.273359 82.764486 L 82.76657 2.275192 " transform="matrix(0.99727, 0, 0, -0.99727, 46.111755, 127.655699)"/>
<g fill="rgb(0%, 0%, 0%)" fill-opacity="1">
<use xlink:href="#glyph-0-1" x="106.895341" y="122.261467"/>
</g>
<path fill="none" stroke-width="0.79701" stroke-linecap="butt" stroke-linejoin="miter" stroke="rgb(0%, 0%, 0%)" stroke-opacity="1" stroke-miterlimit="10" d="M -3.923248 85.040231 L -42.52082 85.040231 " transform="matrix(0.99727, 0, 0, -0.99727, 46.111755, 127.655699)"/>
<path fill="none" stroke-width="0.6376" stroke-linecap="round" stroke-linejoin="round" stroke="rgb(0%, 0%, 0%)" stroke-opacity="1" stroke-miterlimit="10" d="M -1.554465 2.073245 C -1.425206 1.293773 0.000562287 0.13044 0.38834 0.00118103 C 0.000562287 -0.128078 -1.425206 -1.295328 -1.554465 -2.070883 " transform="matrix(0.99727, 0, 0, -0.99727, 42.198658, 42.848834)"/>
<g fill="rgb(0%, 0%, 0%)" fill-opacity="1">
<use xlink:href="#glyph-1-0" x="8.083868" y="53.347142"/>
</g>
<g fill="rgb(0%, 0%, 0%)" fill-opacity="1">
<use xlink:href="#glyph-2-0" x="14.473375" y="54.83806"/>
</g>
<g clip-path="url(#clip-33)">
<path fill="none" stroke-width="0.79701" stroke-linecap="butt" stroke-linejoin="miter" stroke="rgb(0%, 0%, 0%)" stroke-opacity="1" stroke-miterlimit="10" d="M 0.00153076 88.256043 L 0.00153076 126.853614 " transform="matrix(0.99727, 0, 0, -0.99727, 46.111755, 127.655699)"/>
</g>
<g clip-path="url(#clip-34)">
<path fill="none" stroke-width="0.6376" stroke-linecap="round" stroke-linejoin="round" stroke="rgb(0%, 0%, 0%)" stroke-opacity="1" stroke-miterlimit="10" d="M -1.553343 2.070533 C -1.424083 1.294978 0.00168441 0.127728 0.389462 -0.00153076 C 0.00168441 -0.13079 -1.424083 -1.294122 -1.553343 -2.073594 " transform="matrix(0, -0.99727, -0.99727, 0, 46.111755, 1.150117)"/>
</g>
<g fill="rgb(0%, 0%, 0%)" fill-opacity="1">
<use xlink:href="#glyph-1-0" x="49.819603" y="12.894892"/>
</g>
<g fill="rgb(0%, 0%, 0%)" fill-opacity="1">
<use xlink:href="#glyph-2-1" x="56.20911" y="14.384813"/>
</g>
<path fill="none" stroke-width="0.79701" stroke-linecap="butt" stroke-linejoin="miter" stroke="rgb(0%, 0%, 0%)" stroke-opacity="1" stroke-miterlimit="10" d="M 88.254209 85.040231 L 126.851781 85.040231 " transform="matrix(0.99727, 0, 0, -0.99727, 46.111755, 127.655699)"/>
<path fill="none" stroke-width="0.6376" stroke-linecap="round" stroke-linejoin="round" stroke="rgb(0%, 0%, 0%)" stroke-opacity="1" stroke-miterlimit="10" d="M -1.555176 2.073195 C -1.425917 1.293723 -0.000149053 0.13039 0.387628 0.00113103 C -0.000149053 -0.128128 -1.425917 -1.295378 -1.555176 -2.070933 " transform="matrix(0.99727, 0, 0, -0.99727, 172.617336, 42.848784)"/>
<g fill="rgb(0%, 0%, 0%)" fill-opacity="1">
<use xlink:href="#glyph-1-0" x="158.099154" y="53.347142"/>
</g>
<g fill="rgb(0%, 0%, 0%)" fill-opacity="1">
<use xlink:href="#glyph-2-2" x="164.488661" y="54.83806"/>
</g>
<g clip-path="url(#clip-35)">
<path fill="none" stroke-width="0.79701" stroke-linecap="butt" stroke-linejoin="miter" stroke="rgb(0%, 0%, 0%)" stroke-opacity="1" stroke-miterlimit="10" d="M 85.038398 88.256043 L 85.038398 126.853614 " transform="matrix(0.99727, 0, 0, -0.99727, 46.111755, 127.655699)"/>
</g>
<g clip-path="url(#clip-36)">
<path fill="none" stroke-width="0.6376" stroke-linecap="round" stroke-linejoin="round" stroke="rgb(0%, 0%, 0%)" stroke-opacity="1" stroke-miterlimit="10" d="M -1.553343 2.072766 C -1.424083 1.293294 0.00168441 0.129962 0.389462 0.000702434 C 0.00168441 -0.128557 -1.424083 -1.295806 -1.553343 -2.071361 " transform="matrix(0, -0.99727, -0.99727, 0, 130.918669, 1.150117)"/>
</g>
<g fill="rgb(0%, 0%, 0%)" fill-opacity="1">
<use xlink:href="#glyph-1-0" x="134.625421" y="12.894892"/>
</g>
<g fill="rgb(0%, 0%, 0%)" fill-opacity="1">
<use xlink:href="#glyph-2-3" x="141.014928" y="14.384813"/>
</g>
<g fill="rgb(0%, 0%, 0%)" fill-opacity="1">
<use xlink:href="#glyph-3-0" x="84.997293" y="154.96892"/>
</g>
<g fill="rgb(0%, 0%, 0%)" fill-opacity="1">
<use xlink:href="#glyph-3-1" x="35.847855" y="130.842973"/>
</g>
<g fill="rgb(0%, 0%, 0%)" fill-opacity="1">
<use xlink:href="#glyph-3-2" x="136.215069" y="130.842973"/>
</g>
</svg>
