<?xml version="1.0" encoding="UTF-8"?>
<svg xmlns="http://www.w3.org/2000/svg" xmlns:xlink="http://www.w3.org/1999/xlink" width="227.967" height="51.205" viewBox="0 0 227.967 51.205">
<defs>
<g>
<g id="glyph-0-0">
<path d="M 0.15625 -0.96875 C 0.140625 -0.9375 0.109375 -0.90625 0.109375 -0.875 C 0.109375 -0.828125 0.171875 -0.75 0.21875 -0.75 C 0.28125 -0.75 0.296875 -0.78125 0.578125 -1.046875 C 0.65625 -1.125 0.859375 -1.3125 0.9375 -1.390625 C 1.03125 -0.609375 1.3125 0.125 2.03125 0.125 C 2.421875 0.125 2.765625 -0.109375 2.96875 -0.25 C 3.109375 -0.359375 3.578125 -0.734375 3.578125 -0.828125 C 3.578125 -0.859375 3.546875 -0.953125 3.453125 -0.953125 C 3.421875 -0.953125 3.421875 -0.9375 3.328125 -0.859375 C 2.703125 -0.25 2.328125 -0.09375 2.046875 -0.09375 C 1.609375 -0.09375 1.453125 -0.609375 1.453125 -1.375 C 1.453125 -1.4375 1.46875 -1.890625 1.5 -1.9375 C 1.515625 -1.96875 1.515625 -1.984375 1.71875 -2.171875 C 2.515625 -2.96875 3.90625 -4.625 3.90625 -6.15625 C 3.90625 -6.3125 3.90625 -6.921875 3.328125 -6.921875 C 2.515625 -6.921875 1.78125 -5.296875 1.6875 -5.078125 C 1.21875 -4 0.90625 -2.859375 0.90625 -1.6875 Z M 1.546875 -2.34375 C 1.5625 -2.453125 1.984375 -4.625 2.546875 -5.78125 C 2.8125 -6.3125 3.015625 -6.703125 3.34375 -6.703125 C 3.671875 -6.703125 3.671875 -6.34375 3.671875 -6.1875 C 3.671875 -4.546875 2.015625 -2.828125 1.546875 -2.34375 Z M 1.546875 -2.34375 "/>
</g>
<g id="glyph-0-1">
<path d="M 0.859375 -0.578125 C 0.828125 -0.4375 0.78125 -0.203125 0.78125 -0.15625 C 0.78125 0.015625 0.90625 0.109375 1.0625 0.109375 C 1.171875 0.109375 1.359375 0.03125 1.421875 -0.171875 C 1.4375 -0.1875 1.546875 -0.640625 1.609375 -0.890625 L 1.828125 -1.78125 C 1.890625 -1.984375 1.9375 -2.203125 1.984375 -2.4375 C 2.03125 -2.59375 2.109375 -2.890625 2.125 -2.921875 C 2.265625 -3.234375 2.78125 -4.125 3.71875 -4.125 C 4.15625 -4.125 4.25 -3.765625 4.25 -3.4375 C 4.25 -3.1875 4.1875 -2.921875 4.109375 -2.625 L 3.828125 -1.484375 L 3.625 -0.734375 C 3.59375 -0.546875 3.5 -0.203125 3.5 -0.15625 C 3.5 0.015625 3.640625 0.109375 3.78125 0.109375 C 4.09375 0.109375 4.15625 -0.140625 4.234375 -0.453125 C 4.359375 -1 4.734375 -2.4375 4.8125 -2.8125 C 4.84375 -2.9375 5.375 -4.125 6.4375 -4.125 C 6.859375 -4.125 6.96875 -3.78125 6.96875 -3.4375 C 6.96875 -2.875 6.5625 -1.75 6.359375 -1.234375 C 6.265625 -1 6.234375 -0.890625 6.234375 -0.703125 C 6.234375 -0.234375 6.578125 0.109375 7.03125 0.109375 C 7.953125 0.109375 8.328125 -1.328125 8.328125 -1.40625 C 8.328125 -1.5 8.234375 -1.5 8.203125 -1.5 C 8.109375 -1.5 8.109375 -1.46875 8.0625 -1.328125 C 7.90625 -0.796875 7.59375 -0.109375 7.0625 -0.109375 C 6.890625 -0.109375 6.8125 -0.203125 6.8125 -0.4375 C 6.8125 -0.671875 6.90625 -0.90625 7 -1.125 C 7.1875 -1.640625 7.59375 -2.734375 7.59375 -3.28125 C 7.59375 -3.921875 7.203125 -4.34375 6.46875 -4.34375 C 5.734375 -4.34375 5.234375 -3.90625 4.859375 -3.390625 C 4.859375 -3.515625 4.828125 -3.84375 4.546875 -4.078125 C 4.3125 -4.28125 4 -4.34375 3.75 -4.34375 C 2.859375 -4.34375 2.390625 -3.703125 2.21875 -3.484375 C 2.171875 -4.046875 1.75 -4.34375 1.3125 -4.34375 C 0.859375 -4.34375 0.671875 -3.953125 0.59375 -3.78125 C 0.40625 -3.4375 0.28125 -2.859375 0.28125 -2.828125 C 0.28125 -2.734375 0.375 -2.734375 0.40625 -2.734375 C 0.5 -2.734375 0.515625 -2.734375 0.5625 -2.953125 C 0.734375 -3.65625 0.9375 -4.125 1.28125 -4.125 C 1.4375 -4.125 1.59375 -4.046875 1.59375 -3.671875 C 1.59375 -3.46875 1.5625 -3.359375 1.4375 -2.84375 Z M 0.859375 -0.578125 "/>
</g>
</g>
<clipPath id="clip-0">
<path clip-rule="nonzero" d="M 1.726562 21 L 64 21 L 64 50 L 1.726562 50 Z M 1.726562 21 "/>
</clipPath>
<clipPath id="clip-1">
<path clip-rule="nonzero" d="M 164 21 L 226.207031 21 L 226.207031 50 L 164 50 Z M 164 21 "/>
</clipPath>
<clipPath id="clip-2">
<path clip-rule="nonzero" d="M 52 16 L 92 16 L 92 50.421875 L 52 50.421875 Z M 52 16 "/>
</clipPath>
<clipPath id="clip-3">
<path clip-rule="nonzero" d="M 136 16 L 176 16 L 176 50.421875 L 136 50.421875 Z M 136 16 "/>
</clipPath>
<clipPath id="clip-4">
<path clip-rule="nonzero" d="M 1.726562 21 L 3 21 L 3 50.421875 L 1.726562 50.421875 Z M 1.726562 21 "/>
</clipPath>
<clipPath id="clip-5">
<path clip-rule="nonzero" d="M 225 21 L 226.207031 21 L 226.207031 50.421875 L 225 50.421875 Z M 225 21 "/>
</clipPath>
</defs>
<g clip-path="url(#clip-0)">
<path fill="none" stroke-width="0.3985" stroke-linecap="butt" stroke-linejoin="miter" stroke="rgb(50%, 50%, 50%)" stroke-opacity="1" stroke-miterlimit="10" d="M 0.00118221 -0.00195596 C 0.70729 4.718652 3.309575 8.503073 6.375987 8.503073 C 9.446366 8.503073 12.048651 4.718652 12.754759 -0.00195596 C 13.464833 -4.718597 12.282698 -8.503018 10.628501 -8.503018 C 8.978272 -8.503018 7.796136 -4.718597 8.502244 -0.00195596 C 9.212319 4.718652 11.814604 8.503073 14.881016 8.503073 C 17.951395 8.503073 20.549713 4.718652 21.259787 -0.00195596 C 21.969862 -4.718597 20.78376 -8.503018 19.13353 -8.503018 C 17.483301 -8.503018 16.297198 -4.718597 17.007273 -0.00195596 C 17.717348 4.718652 20.319633 8.503073 23.386045 8.503073 C 26.456423 8.503073 29.054741 4.718652 29.764816 -0.00195596 C 30.470924 -4.718597 29.288788 -8.503018 27.638559 -8.503018 C 25.988329 -8.503018 24.802227 -4.718597 25.512302 -0.00195596 C 26.222376 4.718652 28.820694 8.503073 31.891073 8.503073 C 34.957485 8.503073 37.55977 4.718652 38.269845 -0.00195596 C 38.975953 -4.718597 37.793817 -8.503018 36.143588 -8.503018 C 34.489391 -8.503018 33.307256 -4.718597 34.017331 -0.00195596 C 34.723438 4.718652 37.325723 8.503073 40.396102 8.503073 C 43.462514 8.503073 46.064799 4.718652 46.770907 -0.00195596 C 47.480982 -4.718597 46.298846 -8.503018 44.64465 -8.503018 C 42.99442 -8.503018 41.812285 -4.718597 42.518392 -0.00195596 C 43.228467 4.718652 45.830752 8.503073 48.897164 8.503073 C 51.967543 8.503073 54.569828 4.718652 55.275936 -0.00195596 L 56.692118 -0.00195596 " transform="matrix(0.984712, 0, 0, -0.984712, 2.315242, 35.87698)"/>
</g>
<path fill="none" stroke-width="0.3985" stroke-linecap="butt" stroke-linejoin="miter" stroke="rgb(0%, 0%, 0%)" stroke-opacity="1" stroke-miterlimit="10" d="M 0.2987 22.676799 L 56.394601 22.676799 " transform="matrix(0.984712, 0, 0, -0.984712, 2.315242, 35.87698)"/>
<path fill="none" stroke-width="0.3985" stroke-linecap="butt" stroke-linejoin="miter" stroke="rgb(0%, 0%, 0%)" stroke-opacity="1" stroke-miterlimit="10" d="M -0.000277097 2.289621 L -0.000277097 -2.292145 " transform="matrix(-0.984712, 0, 0, 0.984712, 2.511446, 13.546165)"/>
<path fill="none" stroke-width="0.3985" stroke-linecap="butt" stroke-linejoin="miter" stroke="rgb(0%, 0%, 0%)" stroke-opacity="1" stroke-miterlimit="10" d="M -0.000576736 2.292145 L -0.000576736 -2.289621 " transform="matrix(0.984712, 0, 0, -0.984712, 57.94588, 13.546165)"/>
<g fill="rgb(0%, 0%, 0%)" fill-opacity="1">
<use xlink:href="#glyph-0-0" x="28.184599" y="10.081477"/>
</g>
<path fill="none" stroke-width="0.3985" stroke-linecap="butt" stroke-linejoin="miter" stroke="rgb(50%, 50%, 50%)" stroke-opacity="1" stroke-miterlimit="10" d="M 85.03957 -0.00195596 C 85.749644 4.718652 88.347962 8.503073 91.418341 8.503073 C 94.48872 8.503073 97.087038 4.718652 97.797113 -0.00195596 C 98.503221 -4.718597 97.321085 -8.503018 95.670856 -8.503018 C 94.020626 -8.503018 92.834524 -4.718597 93.544598 -0.00195596 C 94.254673 4.718652 96.852991 8.503073 99.92337 8.503073 C 102.989782 8.503073 105.592067 4.718652 106.302142 -0.00195596 C 107.008249 -4.718597 105.826114 -8.503018 104.175884 -8.503018 C 102.521688 -8.503018 101.339552 -4.718597 102.049627 -0.00195596 C 102.755735 4.718652 105.35802 8.503073 108.428399 8.503073 C 111.494811 8.503073 114.097096 4.718652 114.803203 -0.00195596 C 115.513278 -4.718597 114.331143 -8.503018 112.676946 -8.503018 C 111.026717 -8.503018 109.844581 -4.718597 110.550689 -0.00195596 C 111.260764 4.718652 113.863049 8.503073 116.929461 8.503073 C 119.99984 8.503073 122.598158 4.718652 123.308232 -0.00195596 C 124.018307 -4.718597 122.832205 -8.503018 121.181975 -8.503018 C 119.531746 -8.503018 118.34961 -4.718597 119.055718 -0.00195596 C 119.765793 4.718652 122.368078 8.503073 125.43449 8.503073 C 128.504868 8.503073 131.103186 4.718652 131.813261 -0.00195596 C 132.523336 -4.718597 131.337233 -8.503018 129.687004 -8.503018 C 128.036774 -8.503018 126.850672 -4.718597 127.560747 -0.00195596 C 128.270821 4.718652 130.869139 8.503073 133.939518 8.503073 C 137.00593 8.503073 139.608215 4.718652 140.31829 -0.00195596 L 141.734472 -0.00195596 " transform="matrix(0.984712, 0, 0, -0.984712, 2.315242, 35.87698)"/>
<path fill="none" stroke-width="0.3985" stroke-linecap="butt" stroke-linejoin="miter" stroke="rgb(0%, 0%, 0%)" stroke-opacity="1" stroke-miterlimit="10" d="M 85.341054 22.676799 L 141.436955 22.676799 " transform="matrix(0.984712, 0, 0, -0.984712, 2.315242, 35.87698)"/>
<path fill="none" stroke-width="0.3985" stroke-linecap="butt" stroke-linejoin="miter" stroke="rgb(0%, 0%, 0%)" stroke-opacity="1" stroke-miterlimit="10" d="M 0.00175554 2.289621 L 0.00175554 -2.292145 " transform="matrix(-0.984712, 0, 0, 0.984712, 86.251729, 13.546165)"/>
<path fill="none" stroke-width="0.3985" stroke-linecap="butt" stroke-linejoin="miter" stroke="rgb(0%, 0%, 0%)" stroke-opacity="1" stroke-miterlimit="10" d="M 0.00133753 2.292145 L 0.00133753 -2.289621 " transform="matrix(0.984712, 0, 0, -0.984712, 141.686183, 13.546165)"/>
<g fill="rgb(0%, 0%, 0%)" fill-opacity="1">
<use xlink:href="#glyph-0-0" x="111.923483" y="10.081477"/>
</g>
<g clip-path="url(#clip-1)">
<path fill="none" stroke-width="0.3985" stroke-linecap="butt" stroke-linejoin="miter" stroke="rgb(50%, 50%, 50%)" stroke-opacity="1" stroke-miterlimit="10" d="M 170.081924 -0.00195596 C 170.788032 4.718652 173.390317 8.503073 176.460695 8.503073 C 179.527107 8.503073 182.129392 4.718652 182.8355 -0.00195596 C 183.545575 -4.718597 182.363439 -8.503018 180.709243 -8.503018 C 179.059013 -8.503018 177.876878 -4.718597 178.582986 -0.00195596 C 179.29306 4.718652 181.895345 8.503073 184.961757 8.503073 C 188.032136 8.503073 190.630454 4.718652 191.340529 -0.00195596 C 192.050604 -4.718597 190.864501 -8.503018 189.214272 -8.503018 C 187.564042 -8.503018 186.37794 -4.718597 187.088015 -0.00195596 C 187.798089 4.718652 190.400374 8.503073 193.466786 8.503073 C 196.537165 8.503073 199.135483 4.718652 199.845558 -0.00195596 C 200.551666 -4.718597 199.36953 -8.503018 197.719301 -8.503018 C 196.069071 -8.503018 194.882969 -4.718597 195.593043 -0.00195596 C 196.303118 4.718652 198.901436 8.503073 201.971815 8.503073 C 205.038227 8.503073 207.640512 4.718652 208.350587 -0.00195596 C 209.056694 -4.718597 207.874559 -8.503018 206.224329 -8.503018 C 204.570133 -8.503018 203.387997 -4.718597 204.098072 -0.00195596 C 204.80418 4.718652 207.406465 8.503073 210.476844 8.503073 C 213.543256 8.503073 216.145541 4.718652 216.851648 -0.00195596 C 217.561723 -4.718597 216.379588 -8.503018 214.725391 -8.503018 C 213.075162 -8.503018 211.893026 -4.718597 212.599134 -0.00195596 C 213.309209 4.718652 215.911494 8.503073 218.977906 8.503073 C 222.048285 8.503073 224.650569 4.718652 225.356677 -0.00195596 L 226.77286 -0.00195596 " transform="matrix(0.984712, 0, 0, -0.984712, 2.315242, 35.87698)"/>
</g>
<path fill="none" stroke-width="0.3985" stroke-linecap="butt" stroke-linejoin="miter" stroke="rgb(0%, 0%, 0%)" stroke-opacity="1" stroke-miterlimit="10" d="M 170.379441 22.676799 L 226.475342 22.676799 " transform="matrix(0.984712, 0, 0, -0.984712, 2.315242, 35.87698)"/>
<path fill="none" stroke-width="0.3985" stroke-linecap="butt" stroke-linejoin="miter" stroke="rgb(0%, 0%, 0%)" stroke-opacity="1" stroke-miterlimit="10" d="M -0.000168724 2.289621 L -0.000168724 -2.292145 " transform="matrix(-0.984712, 0, 0, 0.984712, 169.992021, 13.546165)"/>
<path fill="none" stroke-width="0.3985" stroke-linecap="butt" stroke-linejoin="miter" stroke="rgb(0%, 0%, 0%)" stroke-opacity="1" stroke-miterlimit="10" d="M -0.000715109 2.292145 L -0.000715109 -2.289621 " transform="matrix(0.984712, 0, 0, -0.984712, 225.426485, 13.546165)"/>
<g fill="rgb(0%, 0%, 0%)" fill-opacity="1">
<use xlink:href="#glyph-0-0" x="195.662368" y="10.081477"/>
</g>
<path fill-rule="nonzero" fill="rgb(100%, 100%, 100%)" fill-opacity="1" d="M 58.140625 47.871094 L 58.140625 23.882812 C 58.140625 22.796875 59.019531 21.921875 60.105469 21.921875 L 84.09375 21.921875 C 85.175781 21.921875 86.054688 22.796875 86.054688 23.882812 L 86.054688 47.871094 C 86.054688 48.957031 85.175781 49.832031 84.09375 49.832031 L 60.105469 49.832031 C 59.019531 49.832031 58.140625 48.957031 58.140625 47.871094 Z M 58.140625 47.871094 "/>
<g clip-path="url(#clip-2)">
<path fill="none" stroke-width="0.3985" stroke-linecap="butt" stroke-linejoin="miter" stroke="rgb(0%, 0%, 0%)" stroke-opacity="1" stroke-miterlimit="10" d="M 56.692118 -12.180332 L 56.692118 12.180387 C 56.692118 13.283185 57.58467 14.17177 58.687468 14.17177 L 83.048187 14.17177 C 84.147018 14.17177 85.03957 13.283185 85.03957 12.180387 L 85.03957 -12.180332 C 85.03957 -13.28313 84.147018 -14.171715 83.048187 -14.171715 L 58.687468 -14.171715 C 57.58467 -14.171715 56.692118 -13.28313 56.692118 -12.180332 Z M 56.692118 -12.180332 " transform="matrix(0.984712, 0, 0, -0.984712, 2.315242, 35.87698)"/>
</g>
<g fill="rgb(0%, 0%, 0%)" fill-opacity="1">
<use xlink:href="#glyph-0-1" x="67.790682" y="37.989186"/>
</g>
<path fill-rule="nonzero" fill="rgb(100%, 100%, 100%)" fill-opacity="1" d="M 141.882812 47.871094 L 141.882812 23.882812 C 141.882812 22.796875 142.761719 21.921875 143.84375 21.921875 L 167.832031 21.921875 C 168.917969 21.921875 169.796875 22.796875 169.796875 23.882812 L 169.796875 47.871094 C 169.796875 48.957031 168.917969 49.832031 167.832031 49.832031 L 143.84375 49.832031 C 142.761719 49.832031 141.882812 48.957031 141.882812 47.871094 Z M 141.882812 47.871094 "/>
<g clip-path="url(#clip-3)">
<path fill="none" stroke-width="0.3985" stroke-linecap="butt" stroke-linejoin="miter" stroke="rgb(0%, 0%, 0%)" stroke-opacity="1" stroke-miterlimit="10" d="M 141.734472 -12.180332 L 141.734472 12.180387 C 141.734472 13.283185 142.627024 14.17177 143.725855 14.17177 L 168.086574 14.17177 C 169.189372 14.17177 170.081924 13.283185 170.081924 12.180387 L 170.081924 -12.180332 C 170.081924 -13.28313 169.189372 -14.171715 168.086574 -14.171715 L 143.725855 -14.171715 C 142.627024 -14.171715 141.734472 -13.28313 141.734472 -12.180332 Z M 141.734472 -12.180332 " transform="matrix(0.984712, 0, 0, -0.984712, 2.315242, 35.87698)"/>
</g>
<g fill="rgb(0%, 0%, 0%)" fill-opacity="1">
<use xlink:href="#glyph-0-1" x="151.530551" y="37.989186"/>
</g>
<g clip-path="url(#clip-4)">
<path fill="none" stroke-width="1.19553" stroke-linecap="butt" stroke-linejoin="miter" stroke="rgb(0%, 0%, 0%)" stroke-opacity="1" stroke-miterlimit="10" d="M 0.00118221 -14.171715 L 0.00118221 14.17177 " transform="matrix(0.984712, 0, 0, -0.984712, 2.315242, 35.87698)"/>
</g>
<g clip-path="url(#clip-5)">
<path fill="none" stroke-width="1.19553" stroke-linecap="butt" stroke-linejoin="miter" stroke="rgb(0%, 0%, 0%)" stroke-opacity="1" stroke-miterlimit="10" d="M 226.77286 -14.171715 L 226.77286 14.17177 " transform="matrix(0.984712, 0, 0, -0.984712, 2.315242, 35.87698)"/>
</g>
</svg>
